<?xml version="1.0" encoding="UTF-8" standalone="no"?>
<!-- Generator: Adobe Illustrator 16.0.0, SVG Export Plug-In . SVG Version: 6.00 Build 0)  -->

<svg
   version="1.0"
   id="designer"
   x="0px"
   y="0px"
   width="560px"
   height="560px"
   viewBox="0 0 560 560"
   enable-background="new 0 0 560 560"
   xml:space="preserve"
   sodipodi:docname="icon-disighner.svg"
   inkscape:version="1.1 (c4e8f9e, 2021-05-24)"
   xmlns:inkscape="http://www.inkscape.org/namespaces/inkscape"
   xmlns:sodipodi="http://sodipodi.sourceforge.net/DTD/sodipodi-0.dtd"
   xmlns="http://www.w3.org/2000/svg"
   xmlns:svg="http://www.w3.org/2000/svg"><defs
   id="defs15" /><sodipodi:namedview
   id="namedview13"
   pagecolor="#ffffff"
   bordercolor="#999999"
   borderopacity="1"
   inkscape:pageshadow="0"
   inkscape:pageopacity="0"
   inkscape:pagecheckerboard="0"
   showgrid="false"
   inkscape:zoom="0.65535714"
   inkscape:cx="424.95913"
   inkscape:cy="317.3842"
   inkscape:window-width="1366"
   inkscape:window-height="699"
   inkscape:window-x="0"
   inkscape:window-y="0"
   inkscape:window-maximized="1"
   inkscape:current-layer="designer" />
<g
   id="g10">
	<path
   d="M199.105,443.838c11.703-10.891,25.658-16.743,40.393-16.974c1.757-5.237,4.098-11.428,7.176-18.15   c2.037-4.456,5.695-12.422,90.471-98.819c0.621-2.495,1.48-4.835,2.597-6.952c17.484-24.192,20.254-48.242,20.59-56.909   c17.221,1.075,11.221-19.957,15.36-28.895c4.112-9.035,7.026-15.847,4.725-25.495c-1.716-7.395-7.741-6.685-9.602-6.073   c5.458-21.528,7.063-37.796,6.405-50.107c0,0,0-0.004,0-0.008c0.463-8.05,0.313-15.782-0.103-22.613   c12.27-7.638,19.842-12.759,19.842-12.759c24.77-27.466-3.061-53.834-45.71-65.21c-32.003-8.541-79.114-11.017-110.21-5.018   c-9.97-10.895-18.39-14.552-23.369-15.567c-4.186-0.851,2.79,12.081,7.404,20.014c-3.321,1.309-6.236,2.785-8.614,4.452   c-22.645,15.871-68.938,79.021-80.675,97.456c-11.735,18.432-11.03,37.53,9.77,46.295c7.924,3.335,17.585,5.171,29.442,5.311   c-1.233,0.799-2.275,1.896-2.635,3.434c-2.28,9.648,2.644,16.853,6.765,25.888c4.102,8.938-1.893,29.97,15.323,28.895   c0.355,8.521,3.046,31.933,19.81,55.765c10.054,16.8,1.654,46.453-10.567,55.461c-16.086,11.932-153.389,47.61-162.042,100.113   c0,0-3.121,15.085-2.887,32.03l134.542,0.01C176.269,477.382,180.525,461.134,199.105,443.838z"
   id="path2"
   style="fill:#ffffff" />
	<path
   d="M398.801,378.744c-75.433,84.407-82.871,88.425-87.081,90.705c-5.479,2.961-10.604,5.382-15.14,7.325   c0.242,4.187,0.084,8.41-0.468,12.643l219.088,0.01c0.248-16.922-2.909-30.657-2.909-30.657   C506.58,424.094,444.762,396.754,398.801,378.744z"
   id="path4"
   style="fill:#ffffff" />
	<path
   d="M519.068,206.714c-4.994-6.101-17.767-17.248-17.767-17.248c-2.345-2.06-4.569-3.924-6.289-5.148   c-6.419-4.569-11.777,0.944-11.777,0.944s-81.864,80.829-146.355,146.885c-39.814,40.78-73.013,75.933-76.228,82.959   c-2.677,5.841-4.728,11.204-6.297,15.814c4.495,1.275,9.373,3.242,14.156,6.106c5.045,3.013,9.988,7.008,14.248,12.208   c3.104,3.775,5.841,8.18,8.018,13.301c4.094-1.763,8.69-3.93,13.633-6.603c6.877-3.723,40.444-39.991,79.058-83.104   c61.356-68.508,135.449-154.299,135.449-154.299S524.059,212.811,519.068,206.714z"
   id="path6"
   style="fill:#ffffff" />
	<path
   d="M269.576,454.008c-1.518-1.462-3.092-2.746-4.681-3.877c-5.13-3.635-10.418-5.652-14.521-6.778   c-10.866-2.411-26.107-1.935-40.795,11.739c-13.577,12.629-17.776,24.253-20.416,34.32c-2.626,9.998-3.719,18.468-10.923,24.874   c-14.464,12.856-20.36,13.659-20.36,13.659s17.146,19.557,59.464,17.679c31.456-1.392,58.446-27.787,63.206-56.207   c0.939-5.588,1.016-11.255,0.089-16.823C278.205,464.418,274.154,458.405,269.576,454.008z"
   id="path8"
   style="fill:#ffffff" />
</g>
</svg>
