<?xml version="1.0" encoding="UTF-8" standalone="no"?>
<!-- Created with Inkscape (http://www.inkscape.org/) -->

<svg
   width="512"
   height="512"
   viewBox="0 0 135.46667 135.46667"
   version="1.1"
   id="svg5"
   inkscape:version="1.1 (c4e8f9e, 2021-05-24)"
   sodipodi:docname="icon-camera.svg"
   xmlns:inkscape="http://www.inkscape.org/namespaces/inkscape"
   xmlns:sodipodi="http://sodipodi.sourceforge.net/DTD/sodipodi-0.dtd"
   xmlns="http://www.w3.org/2000/svg"
   xmlns:svg="http://www.w3.org/2000/svg">
  <sodipodi:namedview
     id="namedview7"
     pagecolor="#ffffff"
     bordercolor="#999999"
     borderopacity="1"
     inkscape:pageshadow="0"
     inkscape:pageopacity="0"
     inkscape:pagecheckerboard="0"
     inkscape:document-units="px"
     showgrid="false"
     inkscape:zoom="0.71679688"
     inkscape:cx="535.01907"
     inkscape:cy="226.00545"
     inkscape:window-width="1366"
     inkscape:window-height="699"
     inkscape:window-x="0"
     inkscape:window-y="0"
     inkscape:window-maximized="1"
     inkscape:current-layer="layer1" />
  <defs
     id="defs2" />
  <g
     inkscape:label="Слой 1"
     inkscape:groupmode="layer"
     id="layer1">
    <path
       style="fill:#ffffff;stroke-width:0.0492712"
       d="m 21.417573,118.8179 c -3.650882,-0.33902 -7.603575,-1.90268 -9.441208,-3.73487 -1.536574,-1.53202 -2.5181839,-4.44993 -2.9519379,-8.77479 -0.08756,-0.87325 -0.116705,-3.29293 -0.05221,-4.34035 0.348275,-5.659096 1.8187969,-24.310204 2.2003479,-27.907663 0.158791,-1.497244 0.40849,-2.298567 1.117659,-3.586821 l 0.295611,-0.537007 -0.07832,-1.436342 c -0.127954,-2.346174 -0.133738,-2.584212 -0.08221,-3.38651 0.06173,-0.960296 0.172859,-1.410686 0.472576,-1.914534 0.600359,-1.009276 2.189289,-2.584882 4.29262,-4.25662 0.499263,-0.396816 0.606169,-0.505147 0.629075,-0.637417 0.28118,-1.624083 1.002232,-7.176278 1.377239,-10.60485 0.312416,-2.856389 1.004145,-9.925484 1.186042,-12.120719 0.11859,-1.431238 0.285794,-2.122768 0.72669,-3.005544 0.296889,-0.594442 0.602108,-1.022103 1.112774,-1.559167 0.844048,-0.887698 0.991844,-0.990587 5.477356,-3.813188 5.531635,-3.480899 7.69422,-4.78076 9.260798,-5.566365 1.123805,-0.563563 1.134973,-0.566166 2.427241,-0.565783 1.435025,4.27e-4 4.891791,0.146594 9.892755,0.418308 0.718124,0.03901 1.809252,0.0978 2.42473,0.130624 0.933478,0.04978 1.12424,0.07252 1.150391,0.137064 0.01722,0.04256 0.04324,0.653856 0.05774,1.358434 0.02139,1.0382 0.01042,1.406314 -0.05801,1.941814 -0.14427,1.129067 -0.456786,1.970832 -0.886904,2.388854 -0.369034,0.358666 -1.471655,0.883083 -3.131434,1.48935 l -0.714435,0.26096 1.884623,0.002 1.884624,0.002 v 0.468076 0.468077 h -3.272432 c -2.001228,0 -3.278812,-0.01802 -3.288856,-0.04638 -0.01514,-0.04266 -0.661226,0.108146 -0.721478,0.168394 -0.01423,0.0142 2.350302,0.02581 5.254434,0.02581 h 5.280232 v 0.911517 0.911517 h -6.774792 -6.774792 v -0.591254 c 0,-0.32519 -0.01033,-0.591254 -0.02302,-0.591254 -0.01269,0 -0.361872,0.05402 -0.776019,0.120046 -0.414156,0.06603 -0.887666,0.134264 -1.052259,0.151642 l -0.299255,0.0316 -0.153625,0.304115 c -0.08448,0.167264 -0.211601,0.398347 -0.282467,0.513518 l -0.128851,0.209403 h 1.209935 c 1.042651,0 1.209936,0.01022 1.209936,0.0739 0,0.06536 0.81845,0.0739 7.070421,0.0739 6.251971,0 7.070421,-0.0085 7.070421,-0.0739 0,-0.06323 0.142239,-0.0739 0.984565,-0.0739 h 0.984566 l 0.01314,1.219463 0.01314,1.219462 5.617031,0.01253 5.617022,0.01253 6.576996,-2.759396 6.576987,-2.759396 h 10.97577 10.975774 v 2.759188 2.759189 h 0.91152 0.91152 V 33.73174 32.746316 h 1.30568 1.30569 v -1.18251 -1.182508 h 7.31588 7.31589 l 0.0132,1.17019 0.0132,1.170192 0.77602,0.01357 0.77602,0.01357 v 0.984173 0.984173 h 0.88688 0.88688 V 63.417644 92.118131 H 97.468698 68.74467 l 0.208302,0.192639 c 0.822837,0.760999 0.899132,2.082437 0.200678,3.475711 -0.279431,0.557393 -0.603395,1.008523 -1.03277,1.438116 -0.317584,0.317746 -0.491087,0.445682 -0.83522,0.615886 l -0.43437,0.214819 -0.643405,-0.0073 c -1.212601,-0.01287 -3.350168,-0.450985 -6.314407,-1.294099 -2.424322,-0.689544 -5.580828,-1.742791 -7.137843,-2.38171 -0.423963,-0.173975 -1.414756,-0.496253 -1.43303,-0.466123 -0.0036,0.0054 -0.08738,0.248267 -0.186765,0.539491 -0.541657,1.587136 -1.68156,3.83839 -2.945421,5.817059 -3.858531,6.04082 -8.831694,10.51184 -13.348062,12.00032 l -0.32178,0.10604 -0.159888,0.4307 c -0.442864,1.19298 -1.398912,2.50474 -2.453728,3.36666 -1.748302,1.42858 -4.310685,2.37956 -7.156596,2.65604 -0.595555,0.0578 -2.690147,0.0547 -3.332901,-0.005 z m 3.375077,-1.62462 c 2.232618,-0.20944 4.432694,-0.9858 5.83864,-2.06034 0.464355,-0.35491 1.041817,-0.92781 1.357641,-1.34695 0.687278,-0.91208 0.946658,-1.5318 1.201579,-2.87089 0.701726,-3.68609 0.733035,-7.29516 0.09253,-10.66723 -0.05674,-0.298645 -0.166814,-0.602559 -0.383699,-1.059327 -0.977577,-2.05877 -2.220852,-3.300803 -3.719954,-3.716219 l -0.337869,-0.09363 -0.460068,0.145757 c -1.134519,0.359416 -2.483985,0.622032 -3.859791,0.751137 -0.881086,0.08267 -1.650588,0.132913 -1.650588,0.107768 0,-0.0092 0.182922,-0.04224 0.406488,-0.0736 0.714843,-0.100226 1.910067,-0.350967 2.732297,-0.573201 1.489992,-0.402717 2.767068,-0.955514 3.795388,-1.642883 0.579492,-0.387361 1.415355,-1.110661 1.369416,-1.184999 -0.0126,-0.02039 -0.228715,-0.06454 -0.480236,-0.09798 -0.903638,-0.120313 -5.221466,-1.031665 -5.310516,-1.120877 -0.01351,-0.0136 0.09731,-0.01106 0.246355,0.0054 1.288914,0.144307 4.745971,0.298285 5.690825,0.25347 0.946957,-0.04496 1.038055,-0.07016 1.305684,-0.361636 0.198847,-0.216578 0.676935,-0.98336 0.633326,-1.015775 -0.0096,-0.0073 -0.372188,-0.07261 -0.805778,-0.145584 -1.127358,-0.189647 -1.820256,-0.353089 -2.636005,-0.621796 -0.663039,-0.2184 -1.409454,-0.530363 -1.368047,-0.57177 0.0098,-0.0098 0.156045,0.03798 0.324934,0.106164 1.002821,0.405064 2.774864,0.686471 5.160861,0.819583 2.50603,0.139801 5.162557,0.06264 9.04248,-0.262725 l 1.211948,-0.101622 1.005251,0.369794 c 0.552888,0.203389 1.869966,0.647313 2.92683,0.986497 1.056873,0.339193 2.201535,0.716438 2.543701,0.838328 0.342166,0.121899 0.962784,0.325161 1.37916,0.45171 0.416368,0.126549 1.034384,0.341042 1.37336,0.476647 1.301079,0.520473 3.523562,1.277122 5.666623,1.929202 3.143126,0.956375 5.831578,1.570321 7.077155,1.616179 0.315843,0.0116 0.371843,-9.07e-4 0.550096,-0.124574 0.206127,-0.142847 0.385359,-0.317546 0.350279,-0.341422 -0.01115,-0.0073 -0.397151,-0.137934 -0.857835,-0.289692 -1.850967,-0.60974 -3.686342,-1.536692 -4.368916,-2.206503 -0.490651,-0.481478 -0.572259,-0.841682 -0.352155,-1.554313 0.143663,-0.465126 0.647884,-1.246148 1.131456,-1.752581 0.158873,-0.166397 0.163224,-0.18003 0.0804,-0.25192 C 62.448309,89.725985 59.690451,87.763453 59.60451,87.741 59.5494,87.72659 59.060796,87.369457 58.518812,86.947369 c -0.541983,-0.422078 -1.301577,-0.996322 -1.687978,-1.276097 -0.386401,-0.279785 -0.691765,-0.526139 -0.678576,-0.547468 0.01314,-0.0213 -0.346644,-0.346567 -0.799614,-0.722748 -0.45297,-0.37618 -1.200781,-1.014356 -1.661809,-1.418168 -0.989932,-0.867044 -1.267903,-1.055654 -2.259467,-1.533078 -1.184437,-0.570284 -2.454108,-1.008272 -4.195666,-1.447347 -1.595747,-0.402314 -2.505658,-0.527048 -4.163424,-0.570737 -1.911499,-0.05038 -3.861477,-0.217178 -5.80521,-0.496561 -0.819946,-0.117857 -2.813342,-0.276643 -6.758947,-0.538401 -2.023283,-0.134229 -2.088592,-0.145439 -3.066278,-0.526443 -0.592255,-0.230797 -2.36843,-1.084662 -2.566526,-1.233806 -0.07959,-0.05993 0.123314,-0.133613 1.787742,-0.649212 2.128023,-0.65921 1.551123,-0.550207 6.283987,-1.187382 5.272255,-0.709796 8.952216,-1.134386 10.888941,-1.256357 l 0.788338,-0.04965 0.25076,-0.265075 c 0.60955,-0.644325 1.132561,-1.694106 1.229143,-2.467122 0.01913,-0.153126 0.04197,-0.271219 0.05076,-0.262424 0.0091,0.0088 0.0397,0.164245 0.06862,0.345451 0.110551,0.692018 -0.114565,1.809155 -0.56885,2.82294 -0.0126,0.02814 0.08294,0.10206 0.212381,0.164274 0.342483,0.16464 0.626364,0.34958 1.590263,1.036011 1.604567,1.142669 2.425809,1.645807 3.522892,2.158316 0.779862,0.364317 1.679965,0.694439 2.463807,0.903625 l 0.586671,0.156564 0.11549,-0.140945 c 0.426838,-0.520871 0.826944,-1.433527 0.925819,-2.111794 0.03481,-0.238803 0.03725,-0.241823 0.07968,-0.09854 0.07125,0.240818 0.05702,1.005247 -0.02656,1.428865 -0.142222,0.720927 -0.280228,1.134382 -0.550033,1.647817 l -0.17673,0.336325 0.129849,0.387524 c 0.635465,1.896419 2.711802,4.457956 4.97358,6.135789 0.854318,0.633753 1.16126,0.787831 1.987505,0.997637 0.413431,0.104976 0.763746,0.178815 0.778485,0.164067 0.03834,-0.03834 0.401003,-2.8843 0.854907,-6.708865 l 0.391304,-3.297151 -0.721423,-0.940174 C 60.630855,73.069756 60.204888,72.593043 58.24784,70.800817 53.265422,66.238049 46.963488,61.140604 45.166328,60.219585 44.828395,60.0464 44.809722,60.042825 44.242104,60.042589 c -2.144674,-8.91e-4 -7.940266,1.410952 -17.521067,4.268238 -0.497613,0.148402 -0.911443,0.263075 -0.919646,0.25483 -0.0174,-0.01755 3.483117,-1.284632 5.790716,-2.096043 3.896221,-1.370014 7.580551,-2.541143 9.642385,-3.065 0.696197,-0.176885 1.292794,-0.401323 1.512753,-0.569099 0.55238,-0.421316 1.350326,-2.019964 1.362871,-2.730427 0.0027,-0.163679 0.0063,-0.168029 0.05058,-0.05826 0.02611,0.06525 0.06091,0.27822 0.07741,0.473278 0.04387,0.518851 -0.08793,1.241764 -0.410675,2.25339 -0.02538,0.0795 0.01178,0.08373 0.483272,0.05521 0.937213,-0.0567 1.496945,0.179047 3.63947,1.53284 0.392936,0.248285 1.590227,0.92449 2.660642,1.502679 1.070416,0.57819 2.323145,1.26661 2.783829,1.529822 0.958387,0.547575 0.996449,0.584331 2.151844,2.07814 0.629129,0.813395 0.646696,0.830868 1.508828,1.500585 3.075387,2.389029 4.877116,3.916528 5.581009,4.731567 0.411536,0.476527 0.434959,0.495319 0.460484,0.369534 0.118827,-0.585425 0.635321,-6.858842 0.747784,-9.082687 l 0.03399,-0.672597 -0.208129,-0.386734 c -0.587938,-1.092528 -2.240864,-3.347818 -2.98979,-4.079347 -0.551809,-0.538989 -3.205009,-2.230954 -7.359949,-4.693499 -6.189843,-3.668585 -11.279693,-6.451674 -11.772701,-6.437221 -0.627606,0.0184 -4.570138,1.981235 -9.053013,4.507154 -0.763519,0.430212 -1.39951,0.782203 -1.413315,0.782203 -0.01931,0 -8.92563,4.900737 -10.230706,5.629503 -0.149047,0.08323 -0.257069,0.135629 -0.240055,0.116444 0.01704,-0.01918 2.533549,-1.737094 5.592285,-3.817577 6.249886,-4.251022 5.652963,-3.780765 5.902318,-4.649877 0.227056,-0.791352 0.296553,-1.430091 0.293598,-2.698326 -0.0027,-1.336473 -0.061,-1.949674 -0.423338,-4.48368 -0.211465,-1.478896 -0.252065,-1.882342 -0.262752,-2.611375 l -0.0126,-0.862246 -1.660277,-0.614285 C 29.127013,37.68187 28.398691,37.399934 28.42166,37.3932 c 0.02293,-0.0067 0.85711,0.105137 1.853632,0.248597 l 1.811853,0.260838 0.602434,-0.620982 c 2.528782,-2.606638 4.703486,-5.364099 5.29973,-6.719889 l 0.104722,-0.238123 -0.929046,-1.0922 c -0.510983,-0.600709 -0.922075,-1.100087 -0.913555,-1.109727 0.0082,-0.0096 0.558545,0.340477 1.222282,0.778039 l 1.20679,0.795568 0.533019,-0.05366 c 2.535616,-0.255269 6.123291,-1.131735 9.190303,-2.245181 1.816005,-0.65928 2.428855,-0.970999 2.592187,-1.318483 0.123966,-0.263715 0.240318,-0.815329 0.284933,-1.350784 l 0.0339,-0.406488 h -1.46249 c -1.551186,0 -3.688345,-0.075 -4.212291,-0.147824 -0.240779,-0.03347 -0.348891,-0.0762 -0.460348,-0.181995 -0.17693,-0.167924 -0.346272,-0.490017 -0.455898,-0.867113 -0.07315,-0.251728 -0.09558,-0.281214 -0.21375,-0.281292 -0.07261,-4.8e-5 -0.874758,-0.03466 -1.782584,-0.07693 -0.907817,-0.04227 -2.249233,-0.08103 -2.980908,-0.08614 l -1.330321,-0.0093 -0.517346,0.256938 c -1.44128,0.715802 -4.588476,2.617892 -10.199144,6.164115 -3.059905,1.934012 -3.152599,1.994823 -3.621432,2.375851 -1.121058,0.911084 -1.763802,1.948622 -1.990677,3.213403 -0.02801,0.156066 -0.07469,0.577335 -0.10378,0.936153 -0.06962,0.859283 -0.701364,7.496269 -0.889841,9.348765 -0.485702,4.773985 -1.026054,9.142959 -1.601594,12.94977 -0.183882,1.216263 -0.235069,1.464696 -0.313006,1.519289 -0.646705,0.452972 -2.151517,1.693972 -2.98283,2.459916 -1.264821,1.165358 -1.976364,2.009247 -2.096994,2.48704 -0.09143,0.362143 -0.110025,2.278514 -0.03399,3.507993 0.03816,0.616823 0.08222,1.134389 0.09797,1.150146 0.04143,0.0414 2.176771,-0.764469 3.171126,-1.196742 0.466041,-0.202596 1.021059,-0.466068 1.233395,-0.585492 l 0.386047,-0.217135 -0.326204,0.313153 c -0.485339,0.465932 -1.568988,1.259612 -3.181432,2.330139 l -1.438243,0.95487 -0.365978,0.70079 c -0.515171,0.986489 -0.71235,1.552014 -0.821632,2.356589 -0.195502,1.439384 -1.393645,16.190378 -1.968569,24.236218 -0.107477,1.504006 -0.223802,3.11148 -0.258501,3.57217 -0.09037,1.20018 -0.07587,3.78967 0.02701,4.80394 0.387371,3.8201 1.27666,6.49264 2.576633,7.74339 1.004716,0.96668 3.299389,2.05705 5.510587,2.61849 2.17261,0.55164 4.05562,0.71354 6.084994,0.52316 z M 14.692047,91.282749 c 0,-0.100462 0.566339,-1.78534 0.812277,-2.416518 0.717544,-1.841603 1.718861,-3.811214 2.34944,-4.621432 0.458881,-0.589604 1.16136,-0.780155 2.70156,-0.73281 0.881484,0.02709 1.203527,0.05804 2.873458,0.276075 0.428695,0.05597 0.805614,0.103752 0.837612,0.106175 0.032,0.0024 -0.05267,0.03521 -0.188179,0.07284 -0.383472,0.106529 -1.169662,0.204717 -2.537465,0.316907 -1.441605,0.118246 -2.132092,0.215991 -2.501279,0.354073 -0.323892,0.121144 -0.345756,0.152529 -1.53836,2.208041 -0.495265,0.85363 -1.144309,1.951148 -1.442304,2.438925 -0.504629,0.826019 -1.308693,2.044757 -1.34903,2.044757 -0.0098,0 -0.01777,-0.02121 -0.01777,-0.04704 z m 1.298024,-10.570908 c -0.07369,-0.34923 -0.04188,-1.925657 0.04976,-2.46356 0.240798,-1.413267 0.788836,-2.419818 1.517911,-2.78785 0.458735,-0.23157 0.864542,-0.305659 1.519433,-0.277402 1.058849,0.04569 1.851066,0.280265 3.646069,1.079582 0.365842,0.16291 0.676246,0.308024 0.689798,0.32247 0.05847,0.06238 -1.191707,-0.04639 -2.143296,-0.186476 -1.716577,-0.252698 -2.732542,-0.250387 -3.237778,0.0073 -0.519231,0.264897 -0.975809,1.200532 -1.656389,3.394353 -0.329919,1.063485 -0.34561,1.100581 -0.385521,0.911518 z m 19.82291,29.413449 c 3.445101,-1.63679 7.067512,-5.03186 10.249679,-9.60643 1.379305,-1.982842 2.722833,-4.395815 3.364834,-6.043248 0.246944,-0.633689 0.285332,-0.780805 0.203742,-0.780805 -0.09374,0 -2.927645,-1.283838 -4.729627,-2.142662 l -0.905216,-0.431424 -2.322047,-0.01641 c -1.277131,-0.0091 -2.972977,-0.04206 -3.768567,-0.07342 l -1.446509,-0.05692 -0.721424,0.490152 c -0.396779,0.269578 -1.367911,0.925991 -2.158071,1.458702 l -1.436657,0.968548 0.05348,0.185043 c 0.0368,0.127238 0.201412,0.338939 0.527099,0.677751 0.535638,0.55722 0.74259,0.806031 1.168004,1.404232 0.897637,1.26222 1.810285,2.941759 2.655974,4.887761 0.305319,0.70258 0.80924,1.98094 0.809068,2.05249 -4.5e-5,0.0174 -0.14059,-0.22335 -0.312326,-0.535 -0.846613,-1.53632 -2.130452,-3.454572 -3.082503,-4.605743 -0.396127,-0.478976 -0.889842,-1.030749 -0.939343,-1.049803 -0.03889,-0.01496 0.38786,1.8086 0.643198,2.74855 0.525059,1.932836 0.703612,2.756576 0.902432,4.163416 0.227264,1.60815 0.291695,2.76243 0.257141,4.60686 -0.01704,0.90782 -0.04487,1.76797 -0.06191,1.91145 l -0.031,0.26087 0.21588,-0.0829 c 0.118735,-0.0456 0.507819,-0.22156 0.864624,-0.39108 z M 67.644732,95.226169 c 0.187779,-0.314238 0.350233,-0.779473 0.390289,-1.117714 0.05683,-0.479782 0.05774,-0.478831 -1.704285,-1.663839 -0.87145,-0.586055 -1.59989,-1.064714 -1.618744,-1.063681 -0.01885,9.07e-4 -0.09456,0.08901 -0.168219,0.19553 -0.274545,0.397025 -1.07366,0.762541 -1.935466,0.88531 -0.822565,0.117176 -0.763446,0.08421 -0.647602,0.361437 0.208229,0.498365 1.484064,1.247716 3.456068,2.029872 0.834666,0.331062 1.871987,0.669031 1.995373,0.650123 0.04061,-0.0063 0.145249,-0.130891 0.232586,-0.277038 z m -4.617618,-3.114265 c 0.572847,-0.139747 0.979235,-0.341395 1.224719,-0.60771 0.112282,-0.121817 0.20309,-0.24969 0.201812,-0.284171 -0.0027,-0.06155 -1.137692,-0.875656 -1.221257,-0.875656 -0.06037,0 -0.498338,0.512052 -0.76041,0.889044 -0.224818,0.323403 -0.437117,0.715151 -0.503478,0.929055 l -0.03671,0.118237 0.33825,-0.03327 c 0.186031,-0.01831 0.52671,-0.07931 0.757047,-0.135487 z M 124.8625,89.753109 V 88.718417 H 94.305268 63.748039 l 0.538738,0.380246 c 0.296309,0.209135 0.96001,0.673518 1.474891,1.031954 l 0.936152,0.651709 29.082338,0.0027 29.082342,0.0027 V 89.753154 Z M 88.46924,87.802696 c 6.197178,-0.638375 11.83167,-3.92481 15.45151,-9.012432 3.51157,-4.935468 4.79245,-11.02197 3.56978,-16.96282 -0.93719,-4.553697 -3.46281,-8.859322 -6.98633,-11.910113 l -0.569062,-0.492712 1.919652,-0.01289 1.91963,-0.01289 V 42.723161 36.047484 H 70.811969 37.849525 v 5.222749 c 0,3.136074 0.01804,5.222748 0.04523,5.222748 0.02484,0 0.374073,-0.152299 0.776019,-0.338443 0.925638,-0.42867 1.740761,-0.753395 2.30749,-0.919248 0.778086,-0.227704 1.018231,-0.164537 2.907006,0.764638 1.168448,0.574817 2.753408,1.428652 4.769185,2.569214 l 1.468011,0.830629 11.240933,0.01243 11.240942,0.01243 -0.48969,0.416065 c -0.269324,0.228836 -0.789335,0.716621 -1.155567,1.083967 -1.673738,1.678815 -2.950969,3.442062 -4.017142,5.545753 -1.165293,2.299259 -1.847567,4.533341 -2.199958,7.203597 -0.09385,0.711229 -0.109517,1.063187 -0.111375,2.502832 -0.0018,1.653332 0.0233,2.063449 0.20027,3.227265 0.604574,3.976246 2.223844,7.596552 4.776609,10.679407 0.883769,1.067278 2.210773,2.351489 3.360248,3.251881 0.591458,0.463287 1.984822,1.399371 2.620378,1.760396 2.813877,1.598448 6.085919,2.571212 9.364713,2.784082 0.872628,0.05665 2.581292,0.01913 3.516429,-0.07714 z m -3.713518,-1.54941 C 81.457656,85.972161 78.374954,84.960293 75.689819,83.277467 68.959181,79.059255 65.337486,71.397428 66.380155,63.582573 c 0.803276,-6.020558 4.305374,-11.343521 9.5688,-14.543992 0.653114,-0.397134 2.220244,-1.177212 2.918862,-1.452937 1.531163,-0.604314 3.134506,-1.014925 4.951753,-1.26813 0.764008,-0.106453 3.216965,-0.151409 4.09535,-0.07505 4.664028,0.405421 8.920388,2.336526 12.28087,5.571814 4.81487,4.635506 6.99925,11.390561 5.81549,17.983994 -0.94567,5.267305 -4.01597,9.986004 -8.469672,13.016913 -2.75011,1.871552 -5.680032,2.960271 -9.065905,3.368762 -0.758933,0.09156 -2.974727,0.132867 -3.719981,0.06934 z m 3.818521,-3.445773 c 1.822495,-0.276401 3.296433,-0.722996 4.883855,-1.479782 3.88248,-1.850932 6.930152,-5.16382 8.460962,-9.197265 0.42969,-1.13215 0.7832,-2.559428 0.94691,-3.822974 0.11009,-0.84986 0.14598,-2.471597 0.0744,-3.363988 -0.39827,-4.967021 -2.978582,-9.495002 -7.049382,-12.370352 -3.357147,-2.37128 -7.420808,-3.409587 -11.529464,-2.945899 -6.86318,0.774553 -12.610123,5.799381 -14.307039,12.50934 -0.355074,1.404023 -0.495455,2.579349 -0.49434,4.138782 0.0018,2.644419 0.567998,5.0638 1.726484,7.378477 0.869148,1.736584 1.779511,2.991769 3.191259,4.400019 1.379296,1.375874 2.617549,2.280139 4.257549,3.109156 1.838485,0.929349 3.914804,1.533498 5.97099,1.737382 0.82107,0.08142 3.07546,0.02728 3.867787,-0.0929 z m -3.695344,-0.970214 c -3.040589,-0.32721 -5.646645,-1.333688 -7.97249,-3.079047 -3.493269,-2.621411 -5.658157,-6.395123 -6.200086,-10.807656 -0.09743,-0.793329 -0.0833,-2.838232 0.02502,-3.621434 0.358545,-2.592696 1.1909,-4.800156 2.582397,-6.848699 3.85942,-5.68176 10.920586,-8.199872 17.453111,-6.224029 0.892797,0.270037 1.439567,0.486622 2.340387,0.927075 1.6348,0.79933 2.84933,1.665226 4.14429,2.954661 0.46371,0.461736 1.01801,1.06134 1.23178,1.332454 1.778372,2.255451 2.830642,4.682717 3.278682,7.562911 0.0961,0.617913 0.11143,0.9108 0.11333,2.167933 0.002,0.96148 -0.0199,1.603609 -0.0631,1.896942 -0.20439,1.388824 -0.46196,2.447557 -0.85708,3.522892 -1.820572,4.954792 -6.067692,8.695931 -11.211361,9.875701 -1.151279,0.264059 -1.812579,0.334103 -3.288194,0.348263 -0.758779,0.0073 -1.468283,0.0037 -1.576685,-0.008 z m 2.414297,-6.42435 c 3.109742,-0.355532 5.822822,-2.253588 7.215722,-5.048063 0.39969,-0.801859 0.58565,-1.315785 0.75912,-2.097901 0.86099,-3.881915 -0.80819,-7.815322 -4.206883,-9.913519 -2.270489,-1.401695 -5.132335,-1.723933 -7.709657,-0.868094 -2.738597,0.909391 -4.920997,3.092257 -5.834026,5.835266 -0.986541,2.963877 -0.43097,6.158098 1.499446,8.620927 0.337498,0.430581 1.073742,1.173615 1.501486,1.515331 1.278744,1.021575 2.884082,1.709396 4.504067,1.929811 0.605925,0.08244 1.671472,0.09475 2.270725,0.02624 z m -1.786672,-0.247884 c -3.085966,-0.267804 -5.852518,-2.142938 -7.227509,-4.898722 -0.717072,-1.43716 -1.006619,-2.768043 -0.948624,-4.360254 0.05022,-1.378173 0.327617,-2.462299 0.945715,-3.695711 1.868615,-3.728814 6.125684,-5.677544 10.174959,-4.657721 3.037435,0.764989 5.510853,3.133258 6.400703,6.128605 0.43798,1.474297 0.47759,3.270668 0.10436,4.732484 -0.82953,3.248929 -3.354141,5.747404 -6.598554,6.530225 -0.909711,0.219498 -1.944621,0.29975 -2.85105,0.221094 z m 1.814781,-3.815484 c 1.892536,-0.398106 3.418161,-1.819749 3.960226,-3.690294 0.351819,-1.214056 0.2429,-2.494832 -0.310069,-3.646113 -0.680008,-1.415789 -1.861654,-2.399497 -3.393306,-2.824898 -0.435458,-0.120942 -0.560629,-0.133828 -1.295024,-0.13332 -0.667925,4.43e-4 -0.888156,0.01951 -1.234337,0.106734 -1.852871,0.466874 -3.311191,1.891386 -3.822736,3.734091 -0.154586,0.556874 -0.21006,1.556486 -0.118201,2.12984 0.18235,1.138118 0.718922,2.163858 1.545866,2.955104 0.221173,0.211635 0.535175,0.472686 0.697774,0.580108 0.667807,0.441213 1.528235,0.76864 2.266473,0.862482 0.43263,0.05499 1.262066,0.01909 1.703334,-0.07373 z M 72.388645,40.4079 v -3.079537 l 13.882168,0.0124 13.882177,0.0124 0.0127,3.067133 0.0127,3.067133 H 86.283504 72.388645 Z m 52.461725,2.303516 0.0125,-6.663932 h -8.5241 -8.52409 v 6.676389 6.67639 l 8.5116,-0.01245 8.5116,-0.01246 z m -88.984225,4.837578 0.652624,-0.341579 1.99e-4,-5.885447 c 10e-5,-3.236996 -0.01822,-5.864384 -0.04079,-5.83864 -0.02257,0.02574 -0.343942,0.394977 -0.714154,0.820517 -0.37022,0.425539 -1.072663,1.194834 -1.560985,1.709544 -0.605153,0.637849 -0.897002,0.98155 -0.916573,1.079401 -0.04369,0.218383 0.06109,1.248515 0.301739,2.965782 0.334153,2.384875 0.382367,2.926338 0.388268,4.360503 0.0027,0.704578 -0.01296,1.485281 -0.03526,1.734894 l -0.04052,0.453843 0.656395,-0.358619 c 0.36102,-0.197239 0.950075,-0.512329 1.309019,-0.700199 z M 123.33509,34.322992 v -0.541984 h -8.32683 -8.32684 v 0.541984 0.541983 h 8.32684 8.32683 z M 38.884217,33.510017 c 0,-0.66393 -0.0091,-1.207145 -0.01949,-1.207145 -0.0107,0 -0.09333,0.116403 -0.183565,0.258674 -0.23429,0.3694 -0.849369,1.226339 -1.21125,1.687538 -0.170104,0.216794 -0.309489,0.4108 -0.309733,0.431124 -2.45e-4,0.02032 0.38757,0.03696 0.861805,0.03696 h 0.86224 z m 82.912623,-1.416548 0.0138,-0.628208 h -6.25892 -6.25892 v 0.640715 0.640714 l 6.24513,-0.01251 6.24513,-0.01251 z M 51.349834,23.483324 v -0.295627 l -0.160124,-5.42e-4 c -0.08811,-3e-4 -1.168964,-0.0556 -2.401978,-0.122907 -1.233014,-0.0673 -2.288219,-0.122486 -2.344899,-0.122636 -0.07877,-2.06e-4 -0.117621,0.04904 -0.164883,0.209131 -0.03399,0.115172 -0.105837,0.281463 -0.159635,0.369535 -0.05375,0.08807 -0.0794,0.16275 -0.05683,0.165951 0.283057,0.04021 1.755799,0.07748 3.329828,0.08427 l 1.958525,0.0084 z m -5.548331,0.0055 c 0.169533,-0.176959 0.293263,-0.506133 0.210124,-0.559038 -0.03136,-0.01994 -0.227628,-0.0366 -0.436183,-0.03702 l -0.379204,-7.55e-4 0.09046,0.263018 c 0.175996,0.511547 0.279911,0.578928 0.514772,0.333791 z"
       id="path158" />
  </g>
</svg>
